<?xml version="1.0" encoding="utf-8"?>
<!-- Generator: Adobe Illustrator 28.0.0, SVG Export Plug-In . SVG Version: 6.00 Build 0)  -->
<svg version="1.1" id="Слой_1" xmlns="http://www.w3.org/2000/svg" xmlns:xlink="http://www.w3.org/1999/xlink" x="0px" y="0px"
	 viewBox="0 0 1920 1080" style="enable-background:new 0 0 1920 1080;" xml:space="preserve">
<style type="text/css">
	.st0{fill:#6D7075;}
	.st1{fill:none;stroke:#9DA0A5;stroke-width:2;stroke-miterlimit:10;}
	.st2{fill:#FF0000;}
	.st3{fill:#2BBE54;}
	.st4{fill:#FF9D00;}
	.st5{fill:#00C445;}
	.st6{fill:#FFCE00;}
	.st7{fill:#69C1E7;}
	.st8{font-family:'Gotham-Book';}
	.st9{font-size:25.6389px;}
	.st10{letter-spacing:-1;}
	.st11{fill:none;stroke:#DBD7D9;stroke-width:2;stroke-miterlimit:10;}
	.st12{fill:#FECE00;}
	.st13{fill:#FE9000;}
	.st14{fill:#FFD101;}
</style>
<g>
	<text transform="matrix(1 0 0 1 541.9937 82.7705)" class="st8 st9 st10">5 000 тг</text>
	<path class="st11" d="M631.5,105.5h-115c-17.3,0-31.5-14.2-31.5-31.5v0c0-17.3,14.2-31.5,31.5-31.5h115c17.3,0,31.5,14.2,31.5,31.5
		v0C663,91.3,648.8,105.5,631.5,105.5z"/>
	<circle class="st7" cx="520.3" cy="73.6" r="13.2"/>
</g>
<g>
	<text transform="matrix(1 0 0 1 734.9937 82.7705)" class="st8 st9 st10">6 000 тг</text>
	<path class="st11" d="M824.5,105.5h-115c-17.3,0-31.5-14.2-31.5-31.5v0c0-17.3,14.2-31.5,31.5-31.5h115c17.3,0,31.5,14.2,31.5,31.5
		v0C856,91.3,841.8,105.5,824.5,105.5z"/>
	<circle class="st3" cx="713.3" cy="73.6" r="13.2"/>
</g>
<g>
	<text transform="matrix(1 0 0 1 927.9937 82.7705)" class="st8 st9 st10">6 500 тг</text>
	<path class="st11" d="M1017.5,105.5h-115c-17.3,0-31.5-14.2-31.5-31.5v0c0-17.3,14.2-31.5,31.5-31.5h115
		c17.3,0,31.5,14.2,31.5,31.5v0C1049,91.3,1034.8,105.5,1017.5,105.5z"/>
	<circle class="st12" cx="906.3" cy="73.6" r="13.2"/>
</g>
<g>
	<text transform="matrix(1 0 0 1 1120.9937 82.7705)" class="st8 st9 st10">7 000 тг</text>
	<path class="st11" d="M1210.5,105.5h-115c-17.3,0-31.5-14.2-31.5-31.5v0c0-17.3,14.2-31.5,31.5-31.5h115
		c17.3,0,31.5,14.2,31.5,31.5v0C1242,91.3,1227.8,105.5,1210.5,105.5z"/>
	<circle class="st13" cx="1099.3" cy="73.6" r="13.2"/>
</g>
<g>
	<text transform="matrix(1 0 0 1 1313.9937 82.7705)" class="st8 st9 st10">8 000 тг</text>
	<path class="st11" d="M1403.5,105.5h-115c-17.3,0-31.5-14.2-31.5-31.5v0c0-17.3,14.2-31.5,31.5-31.5h115
		c17.3,0,31.5,14.2,31.5,31.5v0C1435,91.3,1420.8,105.5,1403.5,105.5z"/>
	<circle class="st2" cx="1292.3" cy="73.6" r="13.2"/>
</g>
</svg>
