<?xml version="1.0" encoding="utf-8"?>
<!-- Generator: Adobe Illustrator 28.0.0, SVG Export Plug-In . SVG Version: 6.00 Build 0)  -->
<svg version="1.1" id="Слой_1" xmlns="http://www.w3.org/2000/svg" xmlns:xlink="http://www.w3.org/1999/xlink" x="0px" y="0px"
	 viewBox="0 0 1920 1080" style="enable-background:new 0 0 1920 1080;" xml:space="preserve">
<style type="text/css">
	.st0{fill:#6D7075;}
	.st1{fill:none;stroke:#9DA0A5;stroke-width:2;stroke-miterlimit:10;}
	.st2{fill:#FF0000;}
	.st3{fill:#2BBE54;}
	.st4{fill:#FF9D00;}
	.st5{fill:#00C445;}
	.st6{fill:#FFCE00;}
	.st7{fill:#69C1E7;}
	.st8{fill:none;stroke:#DBD7D9;stroke-width:2;stroke-miterlimit:10;}
	.st9{fill:#FECE00;}
	.st10{fill:#FE9000;}
	.st11{font-family:'Gotham-Book';}
	.st12{font-size:52.9px;}
	.st13{font-size:30px;}
	.st14{font-size:24.2477px;}
	.st15{fill:#FFD101;}
</style>
<text transform="matrix(1 0 0 1 875.4688 108.6582)" class="st0 st11 st12">Сцена</text>
<g>
	<path class="st0" d="M960,142c-109.3,0-214.6-8.2-296.5-23.2c-0.3-0.1-0.5-0.3-0.4-0.5c0.1-0.2,0.4-0.4,0.8-0.3
		c81.9,14.9,187.1,23.2,296.2,23.2c109.2,0,214.4-8.2,296.2-23.2c0.3-0.1,0.7,0.1,0.8,0.3c0.1,0.2-0.1,0.4-0.4,0.5
		C1174.6,133.8,1069.3,142,960,142z"/>
</g>
<text transform="matrix(1 0 0 1 858.3931 245.5957)" class="st0 st11 st13">Большой зал</text>
<text transform="matrix(1 0 0 1 1386.6016 304.1064)" class="st0 st11 st14">ряд 1</text>
<text transform="matrix(1 0 0 1 1386.6016 359.1299)" class="st0 st11 st14">ряд 2</text>
<text transform="matrix(1 0 0 1 1386.6016 414.1533)" class="st0 st11 st14">ряд 3</text>
<text transform="matrix(1 0 0 1 1386.6016 469.1768)" class="st0 st11 st14">ряд 4</text>
<text transform="matrix(1 0 0 1 1386.6016 524.2012)" class="st0 st11 st14">ряд 5</text>
<text transform="matrix(1 0 0 1 1386.6016 579.2246)" class="st0 st11 st14">ряд 6</text>
<text transform="matrix(1 0 0 1 1386.6016 634.248)" class="st0 st11 st14">ряд 7</text>
<text transform="matrix(1 0 0 1 1386.6016 689.2715)" class="st0 st11 st14">ряд 8</text>
<text transform="matrix(1 0 0 1 1386.6016 744.2949)" class="st0 st11 st14">ряд 9</text>
<circle class="st4" cx="514.5" cy="296.6" r="11.7"/>
<circle class="st4" cx="557.4" cy="296.6" r="11.7"/>
<circle class="st4" cx="600.3" cy="296.6" r="11.7"/>
<circle class="st4" cx="643.2" cy="296.6" r="11.7"/>
<circle class="st4" cx="686.1" cy="296.6" r="11.7"/>
<circle class="st4" cx="729" cy="296.6" r="11.7"/>
<circle class="st4" cx="771.8" cy="296.6" r="11.7"/>
<circle class="st4" cx="814.7" cy="296.6" r="11.7"/>
<circle class="st4" cx="857.6" cy="296.6" r="11.7"/>
<circle class="st4" cx="900.5" cy="296.6" r="11.7"/>
<circle class="st4" cx="514.5" cy="351.8" r="11.7"/>
<circle class="st4" cx="557.4" cy="351.8" r="11.7"/>
<circle class="st4" cx="600.3" cy="351.8" r="11.7"/>
<circle class="st4" cx="643.2" cy="351.8" r="11.7"/>
<circle class="st4" cx="686.1" cy="351.8" r="11.7"/>
<circle class="st4" cx="729" cy="351.8" r="11.7"/>
<circle class="st4" cx="771.8" cy="351.8" r="11.7"/>
<circle class="st4" cx="814.7" cy="351.8" r="11.7"/>
<circle class="st4" cx="857.6" cy="351.8" r="11.7"/>
<circle class="st4" cx="900.5" cy="351.8" r="11.7"/>
<circle class="st4" cx="514.5" cy="406.9" r="11.7"/>
<circle class="st4" cx="557.4" cy="406.9" r="11.7"/>
<circle class="st4" cx="600.3" cy="406.9" r="11.7"/>
<circle class="st4" cx="643.2" cy="406.9" r="11.7"/>
<circle class="st4" cx="686.1" cy="406.9" r="11.7"/>
<circle class="st4" cx="729" cy="406.9" r="11.7"/>
<circle class="st4" cx="771.8" cy="406.9" r="11.7"/>
<circle class="st4" cx="814.7" cy="406.9" r="11.7"/>
<circle class="st4" cx="857.6" cy="406.9" r="11.7"/>
<circle class="st4" cx="900.5" cy="406.9" r="11.7"/>
<circle class="st15" cx="514.5" cy="462" r="11.7"/>
<circle class="st15" cx="557.4" cy="462" r="11.7"/>
<circle class="st15" cx="600.3" cy="462" r="11.7"/>
<circle class="st15" cx="643.2" cy="462" r="11.7"/>
<circle class="st15" cx="686.1" cy="462" r="11.7"/>
<circle class="st15" cx="729" cy="462" r="11.7"/>
<circle class="st15" cx="771.8" cy="462" r="11.7"/>
<circle class="st15" cx="814.7" cy="462" r="11.7"/>
<circle class="st15" cx="857.6" cy="462" r="11.7"/>
<circle class="st15" cx="900.5" cy="462" r="11.7"/>
<circle class="st15" cx="514.5" cy="517.2" r="11.7"/>
<circle class="st15" cx="557.4" cy="517.2" r="11.7"/>
<circle class="st15" cx="600.3" cy="517.2" r="11.7"/>
<circle class="st15" cx="643.2" cy="517.2" r="11.7"/>
<circle class="st15" cx="686.1" cy="517.2" r="11.7"/>
<circle class="st15" cx="729" cy="517.2" r="11.7"/>
<circle class="st15" cx="771.8" cy="517.2" r="11.7"/>
<circle class="st15" cx="814.7" cy="517.2" r="11.7"/>
<circle class="st15" cx="857.6" cy="517.2" r="11.7"/>
<circle class="st15" cx="900.5" cy="517.2" r="11.7"/>
<circle class="st15" cx="514.5" cy="572.3" r="11.7"/>
<circle class="st15" cx="557.4" cy="572.3" r="11.7"/>
<circle class="st15" cx="600.3" cy="572.3" r="11.7"/>
<circle class="st15" cx="643.2" cy="572.3" r="11.7"/>
<circle class="st15" cx="686.1" cy="572.3" r="11.7"/>
<circle class="st15" cx="729" cy="572.3" r="11.7"/>
<circle class="st15" cx="771.8" cy="572.3" r="11.7"/>
<circle class="st15" cx="814.7" cy="572.3" r="11.7"/>
<circle class="st15" cx="857.6" cy="572.3" r="11.7"/>
<circle class="st15" cx="900.5" cy="572.3" r="11.7"/>
<circle class="st3" cx="514.5" cy="627.4" r="11.7"/>
<circle class="st3" cx="557.4" cy="627.4" r="11.7"/>
<circle class="st3" cx="600.3" cy="627.4" r="11.7"/>
<circle class="st3" cx="643.2" cy="627.4" r="11.7"/>
<circle class="st3" cx="686.1" cy="627.4" r="11.7"/>
<circle class="st3" cx="729" cy="627.4" r="11.7"/>
<circle class="st3" cx="771.8" cy="627.4" r="11.7"/>
<circle class="st3" cx="814.7" cy="627.4" r="11.7"/>
<circle class="st3" cx="857.6" cy="627.4" r="11.7"/>
<circle class="st3" cx="900.5" cy="627.4" r="11.7"/>
<circle class="st3" cx="514.5" cy="682.6" r="11.7"/>
<circle class="st3" cx="557.4" cy="682.6" r="11.7"/>
<circle class="st3" cx="600.3" cy="682.6" r="11.7"/>
<circle class="st3" cx="643.2" cy="682.6" r="11.7"/>
<circle class="st3" cx="686.1" cy="682.6" r="11.7"/>
<circle class="st3" cx="729" cy="682.6" r="11.7"/>
<circle class="st3" cx="771.8" cy="682.6" r="11.7"/>
<circle class="st3" cx="814.7" cy="682.6" r="11.7"/>
<circle class="st3" cx="857.6" cy="682.6" r="11.7"/>
<circle class="st3" cx="900.5" cy="682.6" r="11.7"/>
<circle class="st4" cx="1024" cy="296.6" r="11.7"/>
<circle class="st4" cx="1066.9" cy="296.6" r="11.7"/>
<circle class="st4" cx="1109.8" cy="296.6" r="11.7"/>
<circle class="st4" cx="1152.7" cy="296.6" r="11.7"/>
<circle class="st4" cx="1195.5" cy="296.6" r="11.7"/>
<circle class="st4" cx="1238.4" cy="296.6" r="11.7"/>
<circle class="st4" cx="1281.3" cy="296.6" r="11.7"/>
<circle class="st4" cx="1324.2" cy="296.6" r="11.7"/>
<circle class="st4" cx="1024" cy="351.8" r="11.7"/>
<circle class="st4" cx="1066.9" cy="351.8" r="11.7"/>
<circle class="st4" cx="1109.8" cy="351.8" r="11.7"/>
<circle class="st4" cx="1152.7" cy="351.8" r="11.7"/>
<circle class="st4" cx="1195.5" cy="351.8" r="11.7"/>
<circle class="st4" cx="1238.4" cy="351.8" r="11.7"/>
<circle class="st4" cx="1281.3" cy="351.8" r="11.7"/>
<circle class="st4" cx="1324.2" cy="351.8" r="11.7"/>
<circle class="st4" cx="1024" cy="406.9" r="11.7"/>
<circle class="st4" cx="1066.9" cy="406.9" r="11.7"/>
<circle class="st4" cx="1109.8" cy="406.9" r="11.7"/>
<circle class="st4" cx="1152.7" cy="406.9" r="11.7"/>
<circle class="st4" cx="1195.5" cy="406.9" r="11.7"/>
<circle class="st4" cx="1238.4" cy="406.9" r="11.7"/>
<circle class="st4" cx="1281.3" cy="406.9" r="11.7"/>
<circle class="st4" cx="1324.2" cy="406.9" r="11.7"/>
<circle class="st15" cx="1024" cy="462" r="11.7"/>
<circle class="st15" cx="1066.9" cy="462" r="11.7"/>
<circle class="st15" cx="1109.8" cy="462" r="11.7"/>
<circle class="st15" cx="1152.7" cy="462" r="11.7"/>
<circle class="st15" cx="1195.5" cy="462" r="11.7"/>
<circle class="st15" cx="1238.4" cy="462" r="11.7"/>
<circle class="st15" cx="1281.3" cy="462" r="11.7"/>
<circle class="st15" cx="1324.2" cy="462" r="11.7"/>
<circle class="st15" cx="1024" cy="517.2" r="11.7"/>
<circle class="st15" cx="1066.9" cy="517.2" r="11.7"/>
<circle class="st15" cx="1109.8" cy="517.2" r="11.7"/>
<circle class="st15" cx="1152.7" cy="517.2" r="11.7"/>
<circle class="st15" cx="1195.5" cy="517.2" r="11.7"/>
<circle class="st15" cx="1238.4" cy="517.2" r="11.7"/>
<circle class="st15" cx="1281.3" cy="517.2" r="11.7"/>
<circle class="st15" cx="1324.2" cy="517.2" r="11.7"/>
<circle class="st15" cx="1024" cy="572.3" r="11.7"/>
<circle class="st15" cx="1066.9" cy="572.3" r="11.7"/>
<circle class="st15" cx="1109.8" cy="572.3" r="11.7"/>
<circle class="st15" cx="1152.7" cy="572.3" r="11.7"/>
<circle class="st15" cx="1195.5" cy="572.3" r="11.7"/>
<circle class="st15" cx="1238.4" cy="572.3" r="11.7"/>
<circle class="st15" cx="1281.3" cy="572.3" r="11.7"/>
<circle class="st15" cx="1324.2" cy="572.3" r="11.7"/>
<circle class="st3" cx="1024" cy="627.4" r="11.7"/>
<circle class="st3" cx="1066.9" cy="627.4" r="11.7"/>
<circle class="st3" cx="1109.8" cy="627.4" r="11.7"/>
<circle class="st3" cx="1152.7" cy="627.4" r="11.7"/>
<circle class="st3" cx="1195.5" cy="627.4" r="11.7"/>
<circle class="st3" cx="1238.4" cy="627.4" r="11.7"/>
<circle class="st3" cx="1281.3" cy="627.4" r="11.7"/>
<circle class="st3" cx="1324.2" cy="627.4" r="11.7"/>
<circle class="st3" cx="1024" cy="682.6" r="11.7"/>
<circle class="st3" cx="1066.9" cy="682.6" r="11.7"/>
<circle class="st3" cx="1109.8" cy="682.6" r="11.7"/>
<circle class="st3" cx="1152.7" cy="682.6" r="11.7"/>
<circle class="st3" cx="1195.5" cy="682.6" r="11.7"/>
<circle class="st3" cx="1238.4" cy="682.6" r="11.7"/>
<circle class="st3" cx="1281.3" cy="682.6" r="11.7"/>
<circle class="st3" cx="1324.2" cy="682.6" r="11.7"/>
<circle class="st3" cx="1024" cy="737.6" r="11.7"/>
<circle class="st3" cx="1066.9" cy="737.6" r="11.7"/>
<circle class="st3" cx="1109.8" cy="737.6" r="11.7"/>
<circle class="st3" cx="1152.7" cy="737.6" r="11.7"/>
<circle class="st3" cx="1195.5" cy="737.6" r="11.7"/>
<circle class="st3" cx="1238.4" cy="737.6" r="11.7"/>
<circle class="st3" cx="1281.3" cy="737.6" r="11.7"/>
<circle class="st3" cx="1324.2" cy="737.6" r="11.7"/>
<text transform="matrix(1 0 0 1 1386.6016 844.084)" class="st0 st11 st14">ряд 10</text>
<text transform="matrix(1 0 0 1 1386.6016 899.1074)" class="st0 st11 st14">ряд 11</text>
<circle class="st7" cx="1024" cy="837.4" r="11.7"/>
<circle class="st7" cx="1066.9" cy="837.4" r="11.7"/>
<circle class="st7" cx="1109.8" cy="837.4" r="11.7"/>
<circle class="st7" cx="1152.7" cy="837.4" r="11.7"/>
<circle class="st7" cx="1195.5" cy="837.4" r="11.7"/>
<circle class="st7" cx="1238.4" cy="837.4" r="11.7"/>
<circle class="st7" cx="1281.3" cy="837.4" r="11.7"/>
<circle class="st7" cx="1324.2" cy="837.4" r="11.7"/>
<circle class="st7" cx="1024" cy="892.4" r="11.7"/>
<circle class="st7" cx="1066.9" cy="892.4" r="11.7"/>
<circle class="st7" cx="1109.8" cy="892.4" r="11.7"/>
<circle class="st7" cx="1152.7" cy="892.4" r="11.7"/>
<circle class="st7" cx="851" cy="892.4" r="11.7"/>
<circle class="st7" cx="893.9" cy="892.4" r="11.7"/>
<circle class="st7" cx="936.8" cy="892.4" r="11.7"/>
<circle class="st7" cx="979.7" cy="892.4" r="11.7"/>
<circle class="st7" cx="1195.5" cy="892.4" r="11.7"/>
<circle class="st7" cx="1238.4" cy="892.4" r="11.7"/>
<circle class="st7" cx="1281.3" cy="892.4" r="11.7"/>
<circle class="st7" cx="1324.2" cy="892.4" r="11.7"/>
<text transform="matrix(6.123234e-17 -1 1 6.123234e-17 69.1069 642.2949)" class="st0 st11 st13">2 этаж (слева)</text>
<circle class="st3" cx="107.3" cy="304.6" r="11.5"/>
<circle class="st3" cx="107.3" cy="354.6" r="11.5"/>
<circle class="st3" cx="107.3" cy="404.6" r="11.5"/>
<circle class="st3" cx="107.3" cy="454.6" r="11.5"/>
<circle class="st3" cx="107.3" cy="504.6" r="11.5"/>
<circle class="st3" cx="107.3" cy="554.6" r="11.5"/>
<circle class="st3" cx="107.3" cy="604.6" r="11.5"/>
<circle class="st3" cx="107.3" cy="654.6" r="11.5"/>
<circle class="st3" cx="107.3" cy="704.6" r="11.5"/>
<circle class="st3" cx="107.3" cy="754.6" r="11.5"/>
<text transform="matrix(1 0 0 1 844.1133 984.5957)" class="st0 st11 st13">2 этаж (центр)</text>
<g>
	<circle class="st3" cx="596" cy="1028.6" r="11.5"/>
	<circle class="st3" cx="648" cy="1028.6" r="11.5"/>
	<circle class="st3" cx="700" cy="1028.6" r="11.5"/>
	<circle class="st3" cx="752" cy="1028.6" r="11.5"/>
	<circle class="st3" cx="804" cy="1028.6" r="11.5"/>
	<circle class="st3" cx="856" cy="1028.6" r="11.5"/>
	<circle class="st3" cx="908" cy="1028.6" r="11.5"/>
	<circle class="st3" cx="960" cy="1028.6" r="11.5"/>
	<circle class="st3" cx="1012" cy="1028.6" r="11.5"/>
	<circle class="st3" cx="1064" cy="1028.6" r="11.5"/>
	<circle class="st3" cx="1116" cy="1028.6" r="11.5"/>
	<circle class="st3" cx="1168" cy="1028.6" r="11.5"/>
	<circle class="st3" cx="1220" cy="1028.6" r="11.5"/>
	<circle class="st3" cx="1272" cy="1028.6" r="11.5"/>
	<circle class="st3" cx="1324" cy="1028.6" r="11.5"/>
</g>
</svg>
