<?xml version="1.0" encoding="utf-8"?>
<!-- Generator: Adobe Illustrator 28.0.0, SVG Export Plug-In . SVG Version: 6.00 Build 0)  -->
<svg version="1.1" id="Слой_1" xmlns="http://www.w3.org/2000/svg" xmlns:xlink="http://www.w3.org/1999/xlink" x="0px" y="0px"
	 viewBox="0 0 1920 1080" style="enable-background:new 0 0 1920 1080;" xml:space="preserve">
<style type="text/css">
	.st0{fill:#6D7075;}
	.st1{font-family:'Gotham-Book';}
	.st2{font-size:52.9px;}
	.st3{fill:#5A5D60;}
	.st4{font-size:37px;}
	.st5{font-size:30px;}
	.st6{fill:none;stroke:#9DA0A5;stroke-width:2;stroke-miterlimit:10;}
	.st7{fill:#FF0000;}
	.st8{fill:#2BBE54;}
	.st9{fill:#FF9D00;}
	.st10{fill:#00C445;}
	.st11{fill:#FFCE00;}
	.st12{fill:#69C1E7;}
	.st13{fill:none;stroke:#DBD7D9;stroke-width:2;stroke-miterlimit:10;}
	.st14{fill:#FECE00;}
	.st15{fill:#FE9000;}
	.st16{fill:#FFD101;}
</style>
<text transform="matrix(1 0 0 1 875.4688 120.6582)" class="st0 st1 st2">Сцена</text>
<text transform="matrix(1 0 0 1 342.3794 358.6582)" class="st3 st1 st4">1</text>
<text transform="matrix(1 0 0 1 844.1133 996.5957)" class="st0 st1 st5">2 этаж (центр)</text>
<text transform="matrix(1 0 0 1 858.3931 239.5957)" class="st0 st1 st5">Большой зал</text>
<text transform="matrix(6.123234e-17 -1 1 6.123234e-17 69.1069 654.2949)" class="st0 st1 st5">2 этаж (слева)</text>
<g>
	<path class="st0" d="M960,159c-155.6,0-305.6-19.9-422.4-56c-0.5-0.1-0.7-0.7-0.6-1.2c0.1-0.5,0.6-0.8,1.1-0.7
		c116.6,36.1,266.4,56,421.9,56c155.5,0,305.3-19.9,421.9-56c0.5-0.1,1,0.2,1.1,0.7c0.1,0.5-0.1,1.1-0.6,1.2
		C1265.6,139.1,1115.6,159,960,159z"/>
</g>
<g>
	<circle class="st6" cx="350.5" cy="346.5" r="47.5"/>
	<circle class="st7" cx="276.8" cy="348.8" r="11.5"/>
	<circle class="st7" cx="423.8" cy="348.8" r="11.5"/>
	<circle class="st7" cx="397.8" cy="402.8" r="11.5"/>
	<circle class="st7" cx="302.8" cy="402.8" r="11.5"/>
</g>
<text transform="matrix(1 0 0 1 607.9204 358.6582)" class="st3 st1 st4">2</text>
<g>
	<circle class="st6" cx="618.5" cy="346.5" r="47.5"/>
	<circle class="st7" cx="544.8" cy="348.8" r="11.5"/>
	<circle class="st7" cx="691.8" cy="348.8" r="11.5"/>
	<circle class="st7" cx="665.8" cy="402.8" r="11.5"/>
	<circle class="st7" cx="570.8" cy="402.8" r="11.5"/>
</g>
<text transform="matrix(1 0 0 1 875.6616 358.6582)" class="st3 st1 st4">3</text>
<g>
	<circle class="st6" cx="886.5" cy="346.5" r="47.5"/>
	<circle class="st7" cx="812.8" cy="348.8" r="11.5"/>
	<circle class="st7" cx="959.8" cy="348.8" r="11.5"/>
	<circle class="st7" cx="933.8" cy="402.8" r="11.5"/>
	<circle class="st7" cx="838.8" cy="402.8" r="11.5"/>
</g>
<text transform="matrix(1 0 0 1 1142.5889 358.6582)" class="st3 st1 st4">4</text>
<g>
	<circle class="st6" cx="1154.5" cy="346.5" r="47.5"/>
	<circle class="st7" cx="1080.8" cy="348.8" r="11.5"/>
	<circle class="st7" cx="1227.8" cy="348.8" r="11.5"/>
	<circle class="st7" cx="1201.8" cy="402.8" r="11.5"/>
	<circle class="st7" cx="1106.8" cy="402.8" r="11.5"/>
</g>
<text transform="matrix(1 0 0 1 1411.6802 358.6582)" class="st3 st1 st4">5</text>
<g>
	<circle class="st6" cx="1422.5" cy="346.5" r="47.5"/>
	<circle class="st7" cx="1348.8" cy="348.8" r="11.5"/>
	<circle class="st7" cx="1495.8" cy="348.8" r="11.5"/>
	<circle class="st7" cx="1469.8" cy="402.8" r="11.5"/>
	<circle class="st7" cx="1374.8" cy="402.8" r="11.5"/>
</g>
<text transform="matrix(1 0 0 1 485.0327 504.6582)" class="st3 st1 st4">6</text>
<g>
	<circle class="st6" cx="497.5" cy="491.5" r="47.5"/>
	<circle class="st7" cx="423.8" cy="493.8" r="11.5"/>
	<circle class="st7" cx="570.8" cy="493.8" r="11.5"/>
	<circle class="st7" cx="544.8" cy="547.8" r="11.5"/>
	<circle class="st7" cx="449.8" cy="547.8" r="11.5"/>
</g>
<text transform="matrix(1 0 0 1 753.9761 504.6582)" class="st3 st1 st4">7</text>
<g>
	<circle class="st6" cx="765.5" cy="491.5" r="47.5"/>
	<circle class="st7" cx="691.8" cy="493.8" r="11.5"/>
	<circle class="st7" cx="838.8" cy="493.8" r="11.5"/>
	<circle class="st7" cx="812.8" cy="547.8" r="11.5"/>
	<circle class="st7" cx="717.8" cy="547.8" r="11.5"/>
</g>
<text transform="matrix(1 0 0 1 1021.3472 504.6582)" class="st3 st1 st4">8</text>
<g>
	<circle class="st6" cx="1033.5" cy="491.5" r="47.5"/>
	<circle class="st7" cx="959.8" cy="493.8" r="11.5"/>
	<circle class="st7" cx="1106.8" cy="493.8" r="11.5"/>
	<circle class="st7" cx="1080.8" cy="547.8" r="11.5"/>
	<circle class="st7" cx="985.8" cy="547.8" r="11.5"/>
</g>
<text transform="matrix(1 0 0 1 1289.0327 504.6582)" class="st3 st1 st4">9</text>
<g>
	<circle class="st6" cx="1301.5" cy="491.5" r="47.5"/>
	<circle class="st7" cx="1227.8" cy="493.8" r="11.5"/>
	<circle class="st7" cx="1374.8" cy="493.8" r="11.5"/>
	<circle class="st7" cx="1348.8" cy="547.8" r="11.5"/>
	<circle class="st7" cx="1253.8" cy="547.8" r="11.5"/>
</g>
<text transform="matrix(1 0 0 1 1549.1519 504.6582)" class="st3 st1 st4">10</text>
<g>
	<circle class="st6" cx="1569.5" cy="491.5" r="47.5"/>
	<circle class="st7" cx="1495.8" cy="493.8" r="11.5"/>
	<circle class="st7" cx="1642.8" cy="493.8" r="11.5"/>
	<circle class="st7" cx="1616.8" cy="547.8" r="11.5"/>
	<circle class="st7" cx="1521.8" cy="547.8" r="11.5"/>
</g>
<text transform="matrix(1 0 0 1 336.7563 669.6582)" class="st3 st1 st4">11</text>
<g>
	<circle class="st6" cx="350.5" cy="656.5" r="47.5"/>
	<circle class="st7" cx="276.8" cy="658.8" r="11.5"/>
	<circle class="st7" cx="423.8" cy="658.8" r="11.5"/>
	<circle class="st7" cx="397.8" cy="712.8" r="11.5"/>
	<circle class="st7" cx="302.8" cy="712.8" r="11.5"/>
</g>
<text transform="matrix(1 0 0 1 600.2979 669.6582)" class="st3 st1 st4">12</text>
<g>
	<circle class="st6" cx="618.5" cy="656.5" r="47.5"/>
	<circle class="st7" cx="544.8" cy="658.8" r="11.5"/>
	<circle class="st7" cx="691.8" cy="658.8" r="11.5"/>
	<circle class="st7" cx="665.8" cy="712.8" r="11.5"/>
	<circle class="st7" cx="570.8" cy="712.8" r="11.5"/>
</g>
<text transform="matrix(1 0 0 1 868.0391 669.6582)" class="st3 st1 st4">13</text>
<g>
	<circle class="st6" cx="886.5" cy="656.5" r="47.5"/>
	<circle class="st7" cx="812.8" cy="658.8" r="11.5"/>
	<circle class="st7" cx="959.8" cy="658.8" r="11.5"/>
	<circle class="st7" cx="933.8" cy="712.8" r="11.5"/>
	<circle class="st7" cx="838.8" cy="712.8" r="11.5"/>
</g>
<text transform="matrix(1 0 0 1 1134.9658 669.6582)" class="st3 st1 st4">14</text>
<g>
	<circle class="st6" cx="1154.5" cy="656.5" r="47.5"/>
	<circle class="st7" cx="1080.8" cy="658.8" r="11.5"/>
	<circle class="st7" cx="1227.8" cy="658.8" r="11.5"/>
	<circle class="st7" cx="1201.8" cy="712.8" r="11.5"/>
	<circle class="st7" cx="1106.8" cy="712.8" r="11.5"/>
</g>
<text transform="matrix(1 0 0 1 1404.0571 669.6582)" class="st3 st1 st4">15</text>
<g>
	<circle class="st6" cx="1422.5" cy="656.5" r="47.5"/>
	<circle class="st7" cx="1348.8" cy="658.8" r="11.5"/>
	<circle class="st7" cx="1495.8" cy="658.8" r="11.5"/>
	<circle class="st7" cx="1469.8" cy="712.8" r="11.5"/>
	<circle class="st7" cx="1374.8" cy="712.8" r="11.5"/>
</g>
<text transform="matrix(1 0 0 1 479.4102 833.6582)" class="st3 st1 st4">16</text>
<g>
	<circle class="st6" cx="497.5" cy="821.5" r="47.5"/>
	<circle class="st7" cx="423.8" cy="823.8" r="11.5"/>
	<circle class="st7" cx="570.8" cy="823.8" r="11.5"/>
	<circle class="st7" cx="544.8" cy="877.8" r="11.5"/>
	<circle class="st7" cx="449.8" cy="877.8" r="11.5"/>
</g>
<text transform="matrix(1 0 0 1 748.3535 833.6582)" class="st3 st1 st4">17</text>
<g>
	<circle class="st6" cx="765.5" cy="821.5" r="47.5"/>
	<circle class="st7" cx="691.8" cy="823.8" r="11.5"/>
	<circle class="st7" cx="838.8" cy="823.8" r="11.5"/>
	<circle class="st7" cx="812.8" cy="877.8" r="11.5"/>
	<circle class="st7" cx="717.8" cy="877.8" r="11.5"/>
</g>
<text transform="matrix(1 0 0 1 1015.7246 833.6582)" class="st3 st1 st4">18</text>
<g>
	<circle class="st6" cx="1033.5" cy="821.5" r="47.5"/>
	<circle class="st7" cx="959.8" cy="823.8" r="11.5"/>
	<circle class="st7" cx="1106.8" cy="823.8" r="11.5"/>
	<circle class="st7" cx="1080.8" cy="877.8" r="11.5"/>
	<circle class="st7" cx="985.8" cy="877.8" r="11.5"/>
</g>
<text transform="matrix(1 0 0 1 1282.4102 833.6582)" class="st3 st1 st4">19</text>
<g>
	<circle class="st6" cx="1301.5" cy="821.5" r="47.5"/>
	<circle class="st7" cx="1227.8" cy="823.8" r="11.5"/>
	<circle class="st7" cx="1374.8" cy="823.8" r="11.5"/>
	<circle class="st7" cx="1348.8" cy="877.8" r="11.5"/>
	<circle class="st7" cx="1253.8" cy="877.8" r="11.5"/>
</g>
<text transform="matrix(1 0 0 1 1545.6929 833.6582)" class="st3 st1 st4">20</text>
<g>
	<circle class="st6" cx="1569.5" cy="821.5" r="47.5"/>
	<circle class="st7" cx="1495.8" cy="823.8" r="11.5"/>
	<circle class="st7" cx="1642.8" cy="823.8" r="11.5"/>
	<circle class="st7" cx="1616.8" cy="877.8" r="11.5"/>
	<circle class="st7" cx="1521.8" cy="877.8" r="11.5"/>
</g>
<circle class="st8" cx="107.3" cy="316.6" r="11.5"/>
<g>
	<circle class="st8" cx="596" cy="1040.6" r="11.5"/>
	<circle class="st8" cx="648" cy="1040.6" r="11.5"/>
	<circle class="st8" cx="700" cy="1040.6" r="11.5"/>
	<circle class="st8" cx="752" cy="1040.6" r="11.5"/>
	<circle class="st8" cx="804" cy="1040.6" r="11.5"/>
	<circle class="st8" cx="856" cy="1040.6" r="11.5"/>
	<circle class="st8" cx="908" cy="1040.6" r="11.5"/>
	<circle class="st8" cx="960" cy="1040.6" r="11.5"/>
	<circle class="st8" cx="1012" cy="1040.6" r="11.5"/>
	<circle class="st8" cx="1064" cy="1040.6" r="11.5"/>
	<circle class="st8" cx="1116" cy="1040.6" r="11.5"/>
	<circle class="st8" cx="1168" cy="1040.6" r="11.5"/>
	<circle class="st8" cx="1220" cy="1040.6" r="11.5"/>
	<circle class="st8" cx="1272" cy="1040.6" r="11.5"/>
	<circle class="st8" cx="1324" cy="1040.6" r="11.5"/>
</g>
<circle class="st8" cx="107.3" cy="366.6" r="11.5"/>
<circle class="st8" cx="107.3" cy="416.6" r="11.5"/>
<circle class="st8" cx="107.3" cy="466.6" r="11.5"/>
<circle class="st8" cx="107.3" cy="516.6" r="11.5"/>
<circle class="st8" cx="107.3" cy="566.6" r="11.5"/>
<circle class="st8" cx="107.3" cy="616.6" r="11.5"/>
<circle class="st8" cx="107.3" cy="666.6" r="11.5"/>
<circle class="st8" cx="107.3" cy="716.6" r="11.5"/>
<circle class="st8" cx="107.3" cy="766.6" r="11.5"/>
</svg>
